<svg xmlns="http://www.w3.org/2000/svg" viewBox="0 0 512 512" role="img" aria-label="영어공부 앱 아이콘">
  <defs>
    <linearGradient id="bg" x1="72" y1="40" x2="440" y2="472" gradientUnits="userSpaceOnUse">
      <stop offset="0" stop-color="#14b8a6"/>
      <stop offset="0.52" stop-color="#0f766e"/>
      <stop offset="1" stop-color="#172033"/>
    </linearGradient>
    <linearGradient id="card" x1="139" y1="123" x2="373" y2="386" gradientUnits="userSpaceOnUse">
      <stop offset="0" stop-color="#ffffff"/>
      <stop offset="1" stop-color="#f1f5f9"/>
    </linearGradient>
    <filter id="shadow" x="89" y="90" width="334" height="342" filterUnits="userSpaceOnUse" color-interpolation-filters="sRGB">
      <feDropShadow dx="0" dy="24" stdDeviation="22" flood-color="#0f172a" flood-opacity="0.24"/>
    </filter>
  </defs>
  <rect width="512" height="512" rx="116" fill="url(#bg)"/>
  <circle cx="382" cy="128" r="58" fill="#5eead4" opacity="0.24"/>
  <circle cx="105" cy="402" r="78" fill="#ccfbf1" opacity="0.13"/>
  <g filter="url(#shadow)">
    <rect x="126" y="114" width="260" height="284" rx="58" fill="url(#card)"/>
    <rect x="154" y="146" width="204" height="220" rx="38" fill="#ffffff" opacity="0.62"/>
  </g>
  <path d="M176 322L237 184h38l61 138h-43l-10-26h-55l-10 26h-42Zm64-59h31l-15-42-16 42Z" fill="#172033"/>
  <path d="M300 211c0-14 11-25 25-25s25 11 25 25-11 25-25 25-25-11-25-25Z" fill="#0f766e"/>
  <path d="M178 345h156" stroke="#14b8a6" stroke-width="20" stroke-linecap="round"/>
  <path d="M196 385h96" stroke="#99f6e4" stroke-width="12" stroke-linecap="round" opacity="0.9"/>
</svg>
